<?xml version="1.0" encoding="UTF-8" standalone="no"?>
<svg
   viewBox="0 0 200 200"
   version="1.1"
   id="svg4"
   sodipodi:docname="fondo.svg"
   inkscape:version="1.1.2 (b8e25be833, 2022-02-05)"
   xmlns:inkscape="http://www.inkscape.org/namespaces/inkscape"
   xmlns:sodipodi="http://sodipodi.sourceforge.net/DTD/sodipodi-0.dtd"
   xmlns="http://www.w3.org/2000/svg"
   xmlns:svg="http://www.w3.org/2000/svg">
  <defs
     id="defs8" />
  <sodipodi:namedview
     id="namedview6"
     pagecolor="#ffffff"
     bordercolor="#666666"
     borderopacity="1.0"
     inkscape:pageshadow="2"
     inkscape:pageopacity="0.0"
     inkscape:pagecheckerboard="0"
     showgrid="false"
     inkscape:zoom="2.02"
     inkscape:cx="31.435644"
     inkscape:cy="147.0297"
     inkscape:window-width="1920"
     inkscape:window-height="986"
     inkscape:window-x="-11"
     inkscape:window-y="-11"
     inkscape:window-maximized="1"
     inkscape:current-layer="svg4" />
  <path
     fill="#8a3ffc"
     d="m 147.93122,27.287864 c 16.94946,5.074043 34.87055,15.869877 42.85947,31.955671 7.88096,16.085793 5.72179,37.353591 -5.82975,50.092675 -11.6595,12.84704 -32.71138,17.16538 -48.58126,28.71692 -15.76192,11.44359 -26.44979,30.22834 -41.240093,36.05809 -14.790291,5.82975 -33.898918,-1.2955 -49.876753,-12.84704 C 29.284999,149.82059 16.329997,134.05867 14.386747,117.21717 12.551455,100.37567 21.727914,82.562538 30.364582,67.340411 39.109208,52.010326 47.206084,39.271241 58.649669,32.469865 70.093253,25.560531 84.66763,24.588906 99.997717,23.725239 115.21985,22.96953 131.08972,22.213822 147.93122,27.287864 Z"
     id="path2"
     style="stroke-width:1.07958" />
</svg>
